<svg width="24" height="24" viewBox="0 0 24 24" fill="none" xmlns="http://www.w3.org/2000/svg"><path d="M1.916 8.02s-.355-6.61 1.08-6.94C4.434.75 6.91 3.121 6.91 3.121l-4.994 4.9z" fill="black"/><path d="M15.482 3.282s2.65-2.64 4.53-2.2c1.878.44.443 5.658.443 5.658l-4.973-3.458z" fill="black"/><path d="M20.668 20.107c-1.99 1.572-3.32 2.086-5.583 2.698-1.51.409-5.312.388-8.856-1.038-2.483-1.086-3.456-2.267-3.924-2.91-.408-.56-1.238-1.802-1.285-3.16-.068-1.978-.01-3.908.898-7.674.907-3.768 4.994-4.9 4.994-4.9 4.465-1.053 8.172-.225 9.459 0 1.287.227 4.942 2.541 5.257 7.18.048.693.825 3.16.9 5.232.022.635.04 1.481-.276 2.35-.364 1-1.178 1.884-1.582 2.222z" fill="#F07F2E" stroke="black" stroke-width="0.4" stroke-miterlimit="10"/><path d="M8.362 10.748a1.74 1.74 0 0 1 .106-.173l.056-.08.033-.043a2.343 2.343 0 0 1 .263-.272c.011-.01.07-.059.024-.023-.047.037.021-.013.036-.024a1.1 1.1 0 0 1 .118-.07l.062-.031c.041-.021-.073.023.007-.001.045-.013.09-.024.134-.034.06-.015-.075.002-.013.002.026 0 .053-.003.081-.002.025 0 .05.004.073.004.045 0-.07-.02-.028-.003.009.003.022.003.032.007l.076.02c.01.004.022.01.033.012.069.02-.04-.025-.006-.002.057.039.124.068.182.106a.648.648 0 0 1 .034.026c-.056-.043 0 0 .01.011.033.03.065.057.096.088.156.155.252.292.371.484.1.158.314.22.48.124a.353.353 0 0 0 .127-.477c-.376-.601-.945-1.21-1.723-1.074-.467.082-.833.45-1.1.816-.061.082-.12.168-.168.257a.355.355 0 0 0 .127.477c.157.09.39.04.479-.126z" fill="black"/><path d="M18.6 10.248a1.853 1.853 0 0 1 .156-.242.858.858 0 0 0 .03-.042c.026-.034-.058.071-.005.01a2.346 2.346 0 0 1 .258-.266c.011-.01.07-.057.022-.02-.048.038.017-.012.033-.021.036-.025.073-.048.112-.07l.058-.028c.041-.022-.077.023.004-.001.042-.014.085-.024.128-.035.059-.014-.078.004-.017.002.025 0 .051-.003.078-.002.024 0 .047.005.07.005.045 0-.073-.02-.032-.004.009.004.02.004.03.006l.072.02c.01.003.021.008.032.01.068.02-.042-.026-.01-.004.055.037.118.064.175.102a.765.765 0 0 1 .032.025c-.06-.046-.004-.003.007.008.03.028.062.054.091.083.154.153.235.272.355.461.099.16.313.222.479.126a.353.353 0 0 0 .126-.477c-.364-.582-.914-1.167-1.667-1.036-.452.08-.803.434-1.063.788-.058.08-.113.162-.16.248a.355.355 0 0 0 .126.477c.16.093.392.043.48-.125z" fill="black"/><path d="m10.622 13.772-3.626-.116" stroke="black" stroke-width="0.4" stroke-miterlimit="10"/><path d="m10.682 15.016-3.148.466" stroke="black" stroke-width="0.4" stroke-miterlimit="10"/><path d="m20.174 13.235 3.626-.117" stroke="black" stroke-width="0.4" stroke-miterlimit="10"/><path d="m20.115 14.475 3.148.464" stroke="black" stroke-width="0.4" stroke-miterlimit="10"/><path d="M14.987 14.635s1.754 2.418 3.238-.044" stroke="black" stroke-width="0.4" stroke-miterlimit="10"/><path d="M16.62 12.829v2.73" stroke="black" stroke-width="0.4" stroke-miterlimit="10"/><path d="M16.588 12.952c.735 0 1.33-.418 1.33-.934 0-.515-.595-.933-1.33-.933-.734 0-1.33.418-1.33.933 0 .516.596.934 1.33.934z" fill="black"/><path d="M4.94 11.631c1.18-1.215-2.59-3.767-2.867-3.876C2.06 7.75 1 12.524 1.055 15.4c.013.672.14 1.37.14 1.37.221.196.366.826 2.018.022.924-.45 1.107-1.368.265-1.544-1.618-.34.005-.7-.26-1.34-.67-1.615.482-.998 1.722-2.277z" fill="black" stroke="black" stroke-width="0.4" stroke-miterlimit="10"/><path d="M20.951 16.374c.138-1.43 1.48-1.026 1.48-1.026.447 2.61-1.115 4.383-2.241 5.004-.275 0-.537-1.596.078-1.8.615-.203.547-.748.684-2.178z" fill="black" stroke="black" stroke-width="0.4" stroke-miterlimit="10"/></svg>